<svg xmlns="http://www.w3.org/2000/svg" width="31.385" height="31.385" viewBox="0 0 31.385 31.385"><defs><style>.a{fill:#fff;}</style></defs><g transform="translate(-1533 -39)"><path class="a" d="M81.271,22.129c-.331,0-.431-.1-.474-.144-.483-.485-.419-2.272-.445-2.675v-7.3a8.391,8.391,0,0,0-5.9-7.97,2.758,2.758,0,1,0-4.878,0,8.391,8.391,0,0,0-5.9,7.97s0,6.129,0,6.436c.008,1.564-.006,3.088-.449,3.534-.043.043-.143.144-.474.144A2.762,2.762,0,0,0,60,24.888v1.9a.92.92,0,0,0,.919.919h6.59a4.6,4.6,0,0,0,9.01,0h6.59a.92.92,0,0,0,.919-.919v-1.9A2.762,2.762,0,0,0,81.271,22.129ZM72.015,1.839a.919.919,0,1,1-.919.919A.921.921,0,0,1,72.015,1.839Zm-6.5,10.176a6.5,6.5,0,0,1,13,0s0,6.372,0,6.436h-13Zm-.022,8.275h13.04a7.241,7.241,0,0,0,.286,1.839H65.209A7.238,7.238,0,0,0,65.495,20.29Zm6.52,9.256a2.768,2.768,0,0,1-2.6-1.845h5.2A2.768,2.768,0,0,1,72.015,29.546ZM82.19,25.868H61.839v-.981a.921.921,0,0,1,.919-.919H81.271a.921.921,0,0,1,.919.919Z" transform="translate(1476.678 39)"/><g transform="translate(1533 39)"><g transform="translate(0 4.516)"><path class="a" d="M2.887,73.775a.919.919,0,0,0-1.234.409A15.628,15.628,0,0,0,.995,86.665a.919.919,0,1,0,1.721-.647A13.789,13.789,0,0,1,3.3,75.009.919.919,0,0,0,2.887,73.775Z" transform="translate(0 -73.677)"/></g><g transform="translate(27.992 4.516)"><path class="a" d="M458.379,74.184a.919.919,0,0,0-1.643.825,13.789,13.789,0,0,1,.58,11.008.92.92,0,0,0,1.721.648,15.628,15.628,0,0,0-.657-12.481Z" transform="translate(-456.637 -73.676)"/></g><g transform="translate(3.678 8.52)"><path class="a" d="M61.437,139.021a.92.92,0,0,0-1.109.68,12.013,12.013,0,0,0-.133,4.951A.919.919,0,0,0,62,144.32a10.174,10.174,0,0,1,.112-4.19A.919.919,0,0,0,61.437,139.021Z" transform="translate(-60 -138.996)"/></g><g transform="translate(25.565 8.52)"><path class="a" d="M418.864,139.7a.919.919,0,0,0-1.788.429,10.174,10.174,0,0,1,.112,4.19.919.919,0,1,0,1.809.332,12.012,12.012,0,0,0-.133-4.951Z" transform="translate(-417.051 -138.996)"/></g></g></g></svg>