<svg xmlns="http://www.w3.org/2000/svg" xmlns:xlink="http://www.w3.org/1999/xlink" width="264.947" height="77.408" viewBox="0 0 264.947 77.408"><defs><style>.a{fill:none;}.b{clip-path:url(#a);}.c,.d{fill:#fff;}.d{font-size:10.263px;font-family:HelveticaNeue-Bold, Helvetica Neue;font-weight:700;}</style><clipPath id="a"><rect class="a" width="264.947" height="77.408"/></clipPath></defs><g class="b"><g transform="translate(-25.448 -1)"><g transform="translate(120.058 3.771)"><path class="a" d="M135.448,72.571,288.632,42.2,281.025,4H121.811Z" transform="translate(-118.476 -4)"/></g><g transform="translate(0 2)"><path class="c" d="M29.539,24.225a12.123,12.123,0,0,1,9.052-3.636q7.353,0,10.752,4.875a10.617,10.617,0,0,1,2.016,5.494H45.206a8.393,8.393,0,0,0-1.507-3.2,6.065,6.065,0,0,0-4.873-1.918,6.005,6.005,0,0,0-5.187,2.707q-1.9,2.708-1.9,7.662t2,7.421A6.276,6.276,0,0,0,38.835,46.1a5.767,5.767,0,0,0,4.827-2.117,9.3,9.3,0,0,0,1.524-3.416H51.3A13.259,13.259,0,0,1,47.257,48.4a11.763,11.763,0,0,1-8.33,3.017q-6.285,0-9.882-4.076-3.6-4.095-3.6-11.227,0-7.711,4.091-11.887"/><path class="c" d="M68.191,28.94a6.392,6.392,0,0,1,2.695,2.14,5.713,5.713,0,0,1,1.094,2.51,31.146,31.146,0,0,1,.2,4.208V50.6H66.365V37.335a5.882,5.882,0,0,0-.594-2.84,2.983,2.983,0,0,0-2.935-1.52,4.027,4.027,0,0,0-3.4,1.511,6.952,6.952,0,0,0-1.159,4.309V50.6H52.581V21.248h5.694V31.637a6.945,6.945,0,0,1,2.854-2.647,8.025,8.025,0,0,1,3.411-.75,9.23,9.23,0,0,1,3.651.7"/><path class="c" d="M89.308,29.261a8.847,8.847,0,0,1,3.763,3.222,10.7,10.7,0,0,1,1.735,4.5,27.869,27.869,0,0,1,.188,4.322H79.134q.132,3.278,2.277,4.6a5.786,5.786,0,0,0,3.14.819,4.423,4.423,0,0,0,4.333-2.5H94.7a7.1,7.1,0,0,1-2.11,3.935q-2.926,3.177-8.193,3.177a11.871,11.871,0,0,1-7.67-2.679Q73.4,45.976,73.4,39.938q0-5.658,3-8.678a10.5,10.5,0,0,1,7.787-3.019,12.4,12.4,0,0,1,5.121,1.02m-8.517,4.918a5.919,5.919,0,0,0-1.517,3.371h9.809a4.757,4.757,0,0,0-1.517-3.441,4.993,4.993,0,0,0-3.376-1.174,4.516,4.516,0,0,0-3.4,1.244"/><path class="c" d="M106.247,20.879q.439.03,1.2.09V25.6c-.319-.04-.856-.07-1.608-.091a1.853,1.853,0,0,0-1.558.5,1.81,1.81,0,0,0-.43,1.169V29.02h3.736v4.015H103.85V50.6H98.2V33.035H95V29.02h3.116v-1.4q0-3.495,1.179-4.814,1.239-1.959,5.974-1.958.539,0,.978.03"/><text class="d" transform="translate(133.73 33.015)"><tspan x="0" y="0">Transformation</tspan><tspan x="0" y="10.461">powered by ideas</tspan></text><path class="c" d="M286.458,35.609,135.364,72.471,117.329-1h-3.354l19,77.408L290.4,38,280.848-1h-3.353Z"/></g></g></g></svg>